<svg xmlns="http://www.w3.org/2000/svg" enable-background="new 0 0 32 32" viewBox="0 0 32 32" id="firebase">
  <path fill="#E3F8FA" d="M26,32H6c-3.314,0-6-2.686-6-6V6c0-3.314,2.686-6,6-6h20c3.314,0,6,2.686,6,6v20C32,29.314,29.314,32,26,32z"></path>
  <path fill="#26C6DA" d="M21.667 20.909l-1.469-9.333c-.029-.173-.174-.302-.349-.302-.097 0-.185.04-.25.105l-9.265 9.529 5.127 2.952C15.608 23.949 15.787 24 15.977 24c.189 0 .367-.051.521-.141L21.667 20.909 21.667 20.909zM12.913 8.191C12.853 8.077 12.736 8 12.601 8c-.177 0-.323.133-.35.307l-1.543 10.141 3.865-7.075-1.659-3.181L12.913 8.191z"></path>
  <path fill="#8CE1EB" d="M17.501,12.765l-1.188-2.321c-0.061-0.116-0.178-0.193-0.313-0.193s-0.253,0.077-0.313,0.191l-0.001,0.002l-5.213,9.545L17.501,12.765z"></path>
</svg>
